<svg width="216" height="147" viewBox="0 0 216 147" fill="none" xmlns="http://www.w3.org/2000/svg">
<path d="M22.944 108.152C18.976 108.152 15.232 107.384 11.712 105.848C8.256 104.312 5.632 102.264 3.84 99.704L11.52 93.176C14.976 96.632 18.784 98.36 22.944 98.36C28.256 98.36 30.912 96.76 30.912 93.56C30.912 92.472 30.432 91.48 29.472 90.584C28.576 89.688 27.584 89.016 26.496 88.568C25.472 88.056 23.776 87.32 21.408 86.36C15.776 84.504 11.648 82.392 9.024 80.024C6.464 77.592 5.184 74.392 5.184 70.424C5.184 66.136 6.816 62.808 10.08 60.44C13.408 58.008 17.6 56.792 22.656 56.792C30.08 56.792 35.936 59.32 40.224 64.376L32.448 70.712C29.568 67.96 26.304 66.584 22.656 66.584C18.24 66.584 16.032 67.928 16.032 70.616C16.032 71.96 16.832 73.112 18.432 74.072C20.096 75.032 22.496 76.024 25.632 77.048C30.944 78.84 34.944 80.952 37.632 83.384C40.384 85.816 41.76 89.208 41.76 93.56C41.76 98.232 40.064 101.848 36.672 104.408C33.28 106.904 28.704 108.152 22.944 108.152Z" fill="white"/>
<path d="M82.136 107V103.064C78.872 106.456 74.52 108.152 69.08 108.152C63.832 108.152 59.544 106.744 56.216 103.928C52.952 101.048 51.32 97.016 51.32 91.832C51.32 86.52 53.176 82.488 56.888 79.736C60.664 76.984 65.208 75.608 70.52 75.608C75.192 75.608 79.064 76.472 82.136 78.2V75.608C82.136 72.472 81.336 70.2 79.736 68.792C78.2 67.384 75.8 66.68 72.536 66.68C67.224 66.68 62.36 68.216 57.944 71.288L54.488 62.168C59.8 58.584 66.2 56.792 73.688 56.792C76.248 56.792 78.488 57.016 80.408 57.464C82.392 57.848 84.408 58.648 86.456 59.864C88.568 61.08 90.2 63 91.352 65.624C92.504 68.248 93.08 71.512 93.08 75.416V107H82.136ZM71.192 98.264C75.48 98.264 79.128 96.696 82.136 93.56V87.224C79.32 85.88 76.056 85.208 72.344 85.208C69.336 85.208 66.904 85.752 65.048 86.84C63.192 87.928 62.264 89.592 62.264 91.832C62.264 93.816 63.032 95.384 64.568 96.536C66.104 97.688 68.312 98.264 71.192 98.264Z" fill="white"/>
<path d="M105.28 107V97.976L131.008 67.928H107.2V57.944H144.928V66.584L119.296 97.016H144.832V107H105.28Z" fill="white"/>
<path d="M156.28 107V97.976L182.008 67.928H158.2V57.944H195.928V66.584L170.296 97.016H195.832V107H156.28Z" fill="white"/>
<rect x="204" y="95" width="12" height="12" rx="2" fill="#2ABBDB"/>
</svg>
